# xmcd CD database file
#
# Track frame offsets:
#	150
#	9065
#	28195
#	48613
#	67285
#	85620
#	105445
#	123768
#	140805
#	158760
#	178755
#
# Disc length: 2531 seconds
#
# Revision: 0
# Processed by: cddbd v1.5.1PL2 Copyright (c) Steve Scherf et al.
# Submitted via: CDex 1.51
#
DISCID=8c09e10b
DTITLE=杏子 - Under the Silk Tree
DYEAR=2000
DGENRE=J-Pop
TTITLE0=Just Because
TTITLE1=セブンティーン
TTITLE2=あの日から遥か遠く
TTITLE3=二十歳のままで
TTITLE4=阿佐谷北　3:00am
TTITLE5=ユメオチ
TTITLE6=帰省
TTITLE7=Easy Going J-POP Blues
TTITLE8=未来世紀　マル秘　クラブ
TTITLE9=Hello Alone
TTITLE10=Sonnet #9
EXTD=YEAR: 2000
EXTT0=
EXTT1=
EXTT2=
EXTT3=
EXTT4=
EXTT5=
EXTT6=
EXTT7=
EXTT8=
EXTT9=
EXTT10=
PLAYORDER=
